<svg viewBox="0 0 512 512" fill="none" xmlns="http://www.w3.org/2000/svg">
<path d="M320 0C302.3 0 288 14.3 288 32C288 49.7 302.3 64 320 64H402.7L201.3 265.4C188.8 277.9 188.8 298.2 201.3 310.7C213.8 323.2 234.1 323.2 246.6 310.7L448 109.3V192C448 209.7 462.3 224 480 224C497.7 224 512 209.7 512 192V32C512 14.3 497.7 0 480 0H320ZM80 96C35.8 96 0 131.8 0 176V432C0 476.2 35.8 512 80 512H336C380.2 512 416 476.2 416 432V352C416 334.3 401.7 320 384 320C366.3 320 352 334.3 352 352V432C352 440.8 344.8 448 336 448H80C71.2 448 64 440.8 64 432V176C64 167.2 71.2 160 80 160H160C177.7 160 192 145.7 192 128C192 110.3 177.7 96 160 96H80Z" fill="#173395"/>
</svg>
