<svg viewBox="0 0 384 512" fill="none" xmlns="http://www.w3.org/2000/svg">
<path d="M0 64C0 28.7 28.7 0 64 0H213.5C230.5 0 246.8 6.7 258.8 18.7L365.3 125.3C377.3 137.3 384 153.6 384 170.6V448C384 483.3 355.3 512 320 512H64C28.7 512 0 483.3 0 448V64ZM208 58.5V152C208 165.3 218.7 176 232 176H325.5L208 58.5ZM175 441C184.4 450.4 199.6 450.4 208.9 441L272.9 377C282.3 367.6 282.3 352.4 272.9 343.1C263.5 333.8 248.3 333.7 239 343.1L216 366.1V280C216 266.7 205.3 256 192 256C178.7 256 168 266.7 168 280V366.1L145 343.1C135.6 333.7 120.4 333.7 111.1 343.1C101.8 352.5 101.7 367.7 111.1 377L175.1 441H175Z" fill="#173395"/>
</svg>
