<svg width="196" height="48" viewBox="0 0 196 48" fill="none" xmlns="http://www.w3.org/2000/svg">
<path d="M55.376 20.696C55.952 19.6933 56.8053 18.8613 57.936 18.2C59.088 17.5173 60.4213 17.176 61.936 17.176C63.4933 17.176 64.9013 17.5493 66.16 18.296C67.44 19.0427 68.4427 20.0987 69.168 21.464C69.8933 22.808 70.256 24.376 70.256 26.168C70.256 27.9387 69.8933 29.5173 69.168 30.904C68.4427 32.2907 67.44 33.368 66.16 34.136C64.9013 34.904 63.4933 35.288 61.936 35.288C60.4427 35.288 59.12 34.9573 57.968 34.296C56.8373 33.6133 55.9733 32.7707 55.376 31.768V43.32H52.464V17.464H55.376V20.696ZM67.28 26.168C67.28 24.8453 67.0133 23.6933 66.48 22.712C65.9467 21.7307 65.2213 20.984 64.304 20.472C63.408 19.96 62.416 19.704 61.328 19.704C60.2613 19.704 59.2693 19.9707 58.352 20.504C57.456 21.016 56.7307 21.7733 56.176 22.776C55.6427 23.7573 55.376 24.8987 55.376 26.2C55.376 27.5227 55.6427 28.6853 56.176 29.688C56.7307 30.6693 57.456 31.4267 58.352 31.96C59.2693 32.472 60.2613 32.728 61.328 32.728C62.416 32.728 63.408 32.472 64.304 31.96C65.2213 31.4267 65.9467 30.6693 66.48 29.688C67.0133 28.6853 67.28 27.512 67.28 26.168ZM85.961 31.832C85.4277 32.8347 84.5743 33.6667 83.401 34.328C82.2277 34.9893 80.937 35.32 79.529 35.32C78.3983 35.32 77.385 35.096 76.489 34.648C75.593 34.2 74.889 33.5813 74.377 32.792C73.8863 32.0027 73.641 31.1067 73.641 30.104C73.641 28.504 74.2277 27.192 75.401 26.168C76.5743 25.1227 78.2917 24.6 80.553 24.6H85.961C85.9183 23.0853 85.5023 21.8907 84.713 21.016C83.945 20.1413 82.8783 19.704 81.513 19.704C80.2757 19.704 79.2517 20.0453 78.441 20.728C77.6517 21.4107 77.1503 22.36 76.937 23.576H74.089C74.345 21.656 75.1343 20.1093 76.457 18.936C77.801 17.7627 79.529 17.176 81.641 17.176C83.0277 17.176 84.265 17.4747 85.353 18.072C86.4623 18.6693 87.3263 19.5333 87.945 20.664C88.585 21.7947 88.905 23.1493 88.905 24.728V35H85.961V31.832ZM80.105 32.76C81.0863 32.76 82.025 32.5467 82.921 32.12C83.817 31.6933 84.5423 31.064 85.097 30.232C85.673 29.4 85.961 28.408 85.961 27.256V26.968H80.553C79.2303 26.968 78.2383 27.2347 77.577 27.768C76.9157 28.3013 76.585 29.016 76.585 29.912C76.585 30.7653 76.8943 31.4587 77.513 31.992C78.153 32.504 79.017 32.76 80.105 32.76ZM97.406 11.32V35H94.494V11.32H97.406ZM105.921 11.32V35H103.009V11.32H105.921ZM113.028 14.616C112.473 14.616 112.004 14.424 111.62 14.04C111.236 13.656 111.044 13.1867 111.044 12.632C111.044 12.0773 111.236 11.608 111.62 11.224C112.004 10.84 112.473 10.648 113.028 10.648C113.561 10.648 114.009 10.84 114.372 11.224C114.756 11.608 114.948 12.0773 114.948 12.632C114.948 13.1867 114.756 13.656 114.372 14.04C114.009 14.424 113.561 14.616 113.028 14.616ZM114.436 17.464V35H111.524V17.464H114.436ZM131.271 31.832C130.738 32.8347 129.884 33.6667 128.711 34.328C127.538 34.9893 126.247 35.32 124.839 35.32C123.708 35.32 122.695 35.096 121.799 34.648C120.903 34.2 120.199 33.5813 119.687 32.792C119.196 32.0027 118.951 31.1067 118.951 30.104C118.951 28.504 119.538 27.192 120.711 26.168C121.884 25.1227 123.602 24.6 125.863 24.6H131.271C131.228 23.0853 130.812 21.8907 130.023 21.016C129.255 20.1413 128.188 19.704 126.823 19.704C125.586 19.704 124.562 20.0453 123.751 20.728C122.962 21.4107 122.46 22.36 122.247 23.576H119.399C119.655 21.656 120.444 20.1093 121.767 18.936C123.111 17.7627 124.839 17.176 126.951 17.176C128.338 17.176 129.575 17.4747 130.663 18.072C131.772 18.6693 132.636 19.5333 133.255 20.664C133.895 21.7947 134.215 23.1493 134.215 24.728V35H131.271V31.832ZM125.415 32.76C126.396 32.76 127.335 32.5467 128.231 32.12C129.127 31.6933 129.852 31.064 130.407 30.232C130.983 29.4 131.271 28.408 131.271 27.256V26.968H125.863C124.54 26.968 123.548 27.2347 122.887 27.768C122.226 28.3013 121.895 29.016 121.895 29.912C121.895 30.7653 122.204 31.4587 122.823 31.992C123.463 32.504 124.327 32.76 125.415 32.76ZM142.716 11.32V35H139.804V11.32H142.716ZM149.823 14.616C149.268 14.616 148.799 14.424 148.415 14.04C148.031 13.656 147.839 13.1867 147.839 12.632C147.839 12.0773 148.031 11.608 148.415 11.224C148.799 10.84 149.268 10.648 149.823 10.648C150.356 10.648 150.804 10.84 151.167 11.224C151.551 11.608 151.743 12.0773 151.743 12.632C151.743 13.1867 151.551 13.656 151.167 14.04C150.804 14.424 150.356 14.616 149.823 14.616ZM151.231 17.464V35H148.319V17.464H151.231ZM165.378 17.144C167.511 17.144 169.239 17.7947 170.562 19.096C171.885 20.376 172.546 22.232 172.546 24.664V35H169.666V25.08C169.666 23.3307 169.229 21.9973 168.354 21.08C167.479 20.1413 166.285 19.672 164.77 19.672C163.234 19.672 162.007 20.152 161.09 21.112C160.194 22.072 159.746 23.4693 159.746 25.304V35H156.834V17.464H159.746V19.96C160.322 19.064 161.101 18.3707 162.082 17.88C163.085 17.3893 164.183 17.144 165.378 17.144ZM193.943 25.56C193.943 26.1147 193.911 26.7013 193.847 27.32H179.831C179.937 29.048 180.524 30.4027 181.591 31.384C182.679 32.344 183.991 32.824 185.527 32.824C186.785 32.824 187.831 32.536 188.663 31.96C189.516 31.3627 190.113 30.5733 190.455 29.592H193.591C193.121 31.2773 192.183 32.6533 190.775 33.72C189.367 34.7653 187.617 35.288 185.527 35.288C183.863 35.288 182.369 34.9147 181.047 34.168C179.745 33.4213 178.721 32.3653 177.975 31C177.228 29.6133 176.855 28.0133 176.855 26.2C176.855 24.3867 177.217 22.7973 177.943 21.432C178.668 20.0667 179.681 19.0213 180.983 18.296C182.305 17.5493 183.82 17.176 185.527 17.176C187.191 17.176 188.663 17.5387 189.943 18.264C191.223 18.9893 192.204 19.992 192.887 21.272C193.591 22.5307 193.943 23.96 193.943 25.56ZM190.935 24.952C190.935 23.8427 190.689 22.8933 190.199 22.104C189.708 21.2933 189.036 20.6853 188.183 20.28C187.351 19.8533 186.423 19.64 185.399 19.64C183.927 19.64 182.668 20.1093 181.623 21.048C180.599 21.9867 180.012 23.288 179.863 24.952H190.935Z" fill="#173395"/>
<path d="M0.5 3.49999C3 20.8333 15.4 53.2 45 44C46.8333 30 40.5 2.29999 0.5 3.49999Z" fill="#173395"/>
</svg>
